# File created by Blade
# Date/Time:  Wed Jan 28 16:58:26 2015
#---------------------------------------------------------
:version 1.10
:name HOM
:units
  mass 1.0
  length 1.000000
  angle deg
:documentation
     Acclaim Skeleton File
:root
   axis xyz
   order TX TY TZ RX RY RZ
   position 0.000000 0.000000 0.000000
   orientation 0 0 0
:bonedata
   begin
      id 1
      name Spine_dum
      direction 0.000000 1.000000 0.000000
      length 9.621153
      axis 0.0 0.0 0.0 xyz
   end
   begin
      id 2
      name LeftUpLeg_dum
      direction 1.000000 0.000000 0.000000
      length 2.700595
      axis 0.0 0.0 0.0 xyz
   end
   begin
      id 3
      name RightUpLeg_dum
      direction -1.000000 0.000000 0.000000
      length 2.700595
      axis 0.0 0.0 0.0 xyz
   end
   begin
      id 4
      name Spine
      direction 0.000000 1.000000 0.000000
      length 0.000000
      axis 0.0 0.0 0.0 xyz
      dof rx ry rz
   end
   begin
      id 5
      name Spine_dum1
      direction 0.000000 1.000000 0.000000
      length 12.771951
      axis 0.0 0.0 0.0 xyz
   end
   begin
      id 6
      name Spine_dum2
      direction 0.000000 1.000000 0.000000
      length 7.400569
      axis 0.0 0.0 0.0 xyz
   end
   begin
      id 7
      name Spine_dum3
      direction 0.000000 1.000000 0.000000
      length 7.400569
      axis 0.0 0.0 0.0 xyz
   end
   begin
      id 8
      name Head
      direction 0.000000 1.000000 0.000000
      length 4.527550
      axis 0.0 0.0 0.0 xyz
      dof rx ry rz
   end
   begin
      id 9
      name LeftShoulder
      direction 1.000000 0.000000 0.000000
      length 8.349299
      axis 0.0 0.0 -90.0 xyz
      dof rx ry rz
   end
   begin
      id 10
      name LeftArm
      direction 1.000000 0.000000 0.000000
      length 11.334839
      axis 0.0 0.0 -90.0 xyz
      dof rx ry rz
   end
   begin
      id 11
      name LeftForeArm
      direction 1.000000 0.000000 0.000000
      length 9.694182
      axis 0.0 0.0 -90.0 xyz
      dof ry rz rx
   end
   begin
      id 12
      name LeftHand
      direction 0.000000 0.000000 0.000000
      length 0.000000
      axis 0.0 0.0 -90.0 xyz
      dof rx ry rz
   end
   begin
      id 13
      name LeftHand_dum1
      direction 0.000000 0.000000 0.000000
      length 0.000000
      axis 0.0 0.0 -90.0 xyz
   end
   begin
      id 14
      name LeftHand_dum2
      direction 1.000000 0.000000 0.000000
      length 3.937000
      axis 0.0 0.0 -90.0 xyz
   end
   begin
      id 15
      name LeftHandThumb1
      direction 0.000000 0.000000 1.000000
      length 3.937000
      axis 0.0 0.0 -90.0 xyz
      dof rx rz ry
   end
   begin
      id 16
      name RightShoulder
      direction -1.000000 0.000000 0.000000
      length 8.349299
      axis 0.0 0.0 90.0 xyz
      dof rx ry rz
   end
   begin
      id 17
      name RightArm
      direction -1.000000 0.000000 0.000000
      length 11.334839
      axis 0.0 0.0 90.0 xyz
      dof rx ry rz
   end
   begin
      id 18
      name RightForeArm
      direction -1.000000 0.000000 0.000000
      length 9.694182
      axis 0.0 0.0 90.0 xyz
      dof ry rz rx
   end
   begin
      id 19
      name RightHand
      direction 0.000000 0.000000 0.000000
      length 0.000000
      axis 0.0 0.0 90.0 xyz
      dof rx ry rz
   end
   begin
      id 20
      name RightHand_dum1
      direction 0.000000 0.000000 0.000000
      length 0.000000
      axis 0.0 0.0 90.0 xyz
   end
   begin
      id 21
      name RightHand_dum2
      direction -1.000000 0.000000 0.000000
      length 3.937000
      axis 0.0 0.0 90.0 xyz
   end
   begin
      id 22
      name RightHandThumb1
      direction 0.000000 0.000000 1.000000
      length 3.937000
      axis 0.0 0.0 90.0 xyz
      dof rx rz ry
   end
   begin
      id 23
      name LeftUpLeg
      direction 0.000000 -1.000000 0.000000
      length 16.757176
      axis 0.0 0.0 0.0 xyz
      dof rx ry rz
   end
   begin
      id 24
      name LeftLeg
      direction 0.000000 -1.000000 0.000000
      length 16.759153
      axis 0.0 0.0 0.0 xyz
      dof rx ry rz
   end
   begin
      id 25
      name LeftFoot
      direction 0.000000 -0.258819 0.965926
      length 5.841289
      axis 15.0 0.0 0.0 xyz
      dof rx ry rz
   end
   begin
      id 26
      name LeftToeBase
      direction 0.000000 0.000000 1.000000
      length 2.952750
      axis 0.0 0.0 0.0 xyz
      dof rx ry rz
   end
   begin
      id 27
      name RightUpLeg
      direction 0.000000 -1.000000 0.000000
      length 16.757176
      axis 0.0 0.0 0.0 xyz
      dof rx ry rz
   end
   begin
      id 28
      name RightLeg
      direction 0.000000 -1.000000 0.000000
      length 16.759153
      axis 0.0 0.0 0.0 xyz
      dof rx ry rz
   end
   begin
      id 29
      name RightFoot
      direction 0.000000 -0.258819 0.965926
      length 5.841289
      axis 15.0 0.0 0.0 xyz
      dof rx ry rz
   end
   begin
      id 30
      name RightToeBase
      direction 0.000000 0.000000 1.000000
      length 2.952750
      axis 0.0 0.0 0.0 xyz
      dof rx ry rz
   end
:hierarchy
   begin
      root Spine_dum LeftUpLeg_dum RightUpLeg_dum
      Spine_dum Spine
      LeftUpLeg_dum LeftUpLeg
      RightUpLeg_dum RightUpLeg
      Spine Spine_dum1 Spine_dum2 Spine_dum3
      Spine_dum1 Head
      Spine_dum2 LeftShoulder
      Spine_dum3 RightShoulder
      LeftShoulder LeftArm
      LeftArm LeftForeArm
      LeftForeArm LeftHand
      LeftHand LeftHand_dum1 LeftHand_dum2
      LeftHand_dum1 LeftHandThumb1
      RightShoulder RightArm
      RightArm RightForeArm
      RightForeArm RightHand
      RightHand RightHand_dum1 RightHand_dum2
      RightHand_dum1 RightHandThumb1
      LeftUpLeg LeftLeg
      LeftLeg LeftFoot
      LeftFoot LeftToeBase
      RightUpLeg RightLeg
      RightLeg RightFoot
      RightFoot RightToeBase
   end

# File created by Blade
# Date/Time:  Wed Jan 28 16:58:32 2015
# Frame Rate: 120.000 fps
#------------------------------------------------------
:FULLY-SPECIFIED
:DEGREES
805
root 12.879609 37.368449 -15.239362 181.593290 12.695347 -146.972194
Spine 33.444721 -1.654384 22.812753
Head 30.857408 14.894263 29.370819
LeftShoulder -9.355614 5.256238 18.838644
LeftArm 32.620029 -47.483535 -68.184130
LeftForeArm -20.434904 -0.000000 93.347562
LeftHand -9.754699 -0.000000 28.894132
LeftHandThumb1 -26.253704 0.000000 33.147579
RightShoulder -19.784369 -7.443979 -5.474598
RightArm 14.962921 -23.530782 69.612902
RightForeArm -4.061266 -0.000000 36.955507
RightHand -12.770717 -0.000000 -2.687611
RightHandThumb1 -24.326973 -0.000000 -32.862282
LeftUpLeg 0.547124 42.597901 29.835217
LeftLeg 10.096670 -0.000000 -0.000000
LeftFoot -12.193918 20.265493 -7.449091
LeftToeBase 7.403020 -0.000000 -0.000000
RightUpLeg -84.942429 -27.997667 4.553568
RightLeg 130.697103 -0.000000 -0.000000
RightFoot -0.247607 -13.041458 7.033922
RightToeBase 0.309888 -0.000000 -0.000000
806
root 12.878672 37.362644 -15.210919 181.802009 12.834728 -146.948147
Spine 33.292103 -1.472891 22.611707
Head 30.855567 14.565797 29.552094
LeftShoulder -9.346781 5.264304 18.840716
LeftArm 32.876575 -47.512627 -68.196098
LeftForeArm -20.230268 -0.000000 93.527732
LeftHand -9.936771 -0.000000 28.702160
LeftHandThumb1 -26.253704 0.000000 33.147579
RightShoulder -19.776767 -7.464043 -5.211394
RightArm 14.858520 -23.678323 69.623985
RightForeArm -4.211600 -0.000000 36.901187
RightHand -12.877311 -0.000000 -2.599798
RightHandThumb1 -24.326973 -0.000000 -32.862282
LeftUpLeg 0.270613 42.562809 29.719404
LeftLeg 10.259400 -0.000000 -0.000000
LeftFoot -12.351359 20.443382 -7.690376
LeftToeBase 7.438696 -0.000000 -0.000000
RightUpLeg -84.006703 -27.588752 4.225133
RightLeg 130.339849 -0.000000 -0.000000
RightFoot -0.192811 -12.775702 6.934137
RightToeBase 0.171149 -0.000000 -0.000000
807
root 12.878805 37.360582 -15.186548 181.994585 12.932806 -146.874955
Spine 33.140455 -1.373331 22.502650
Head 30.888964 14.335390 29.720565
LeftShoulder -9.351639 5.234008 18.861356
LeftArm 33.081287 -47.533386 -68.311852
LeftForeArm -20.428042 -0.000000 93.712128
LeftHand -9.858812 0.000000 28.136953
LeftHandThumb1 -26.253704 0.000000 33.147579
RightShoulder -19.837495 -7.573072 -4.983872
RightArm 14.934673 -23.846758 69.585499
RightForeArm -4.415157 0.000000 36.723271
RightHand -12.773966 -0.000000 -2.336340
RightHandThumb1 -24.326973 -0.000000 -32.862282
LeftUpLeg -0.003053 42.636715 29.669055
LeftLeg 10.436998 -0.000000 -0.000000
LeftFoot -12.481723 20.526551 -7.857322
LeftToeBase 7.473878 -0.000000 -0.000000
RightUpLeg -83.009687 -27.200902 3.930902
RightLeg 129.990712 -0.000000 -0.000000
RightFoot -0.159764 -12.411066 7.041327
RightToeBase 0.118476 -0.000000 -0.000000
808
root 12.874826 37.359542 -15.162846 182.166759 13.013360 -146.808821
Spine 33.038546 -1.305516 22.407898
Head 30.805972 14.043629 29.843111
LeftShoulder -9.377086 5.192447 18.842730
LeftArm 33.227019 -47.452981 -68.261612
LeftForeArm -20.247923 0.000000 93.903208
LeftHand -9.999309 -0.000000 27.891561
LeftHandThumb1 -26.253704 0.000000 33.147579
RightShoulder -19.932782 -7.644806 -4.808910
RightArm 15.060807 -24.100622 69.557285
RightForeArm -4.425286 0.000000 36.458629
RightHand -12.714384 -0.000000 -2.348444
RightHandThumb1 -24.326973 -0.000000 -32.862282
LeftUpLeg -0.254082 42.848232 29.623055
LeftLeg 10.597116 -0.000000 -0.000000
LeftFoot -12.584993 20.507324 -8.005582
LeftToeBase 7.594088 -0.000000 -0.000000
RightUpLeg -81.963501 -26.828754 3.622184
RightLeg 129.634289 -0.000000 -0.000000
RightFoot -0.148613 -12.076646 7.162050
RightToeBase 0.111382 -0.000000 -0.000000
809
root 12.875583 37.355635 -15.137847 182.375700 13.073199 -146.758406
Spine 32.852507 -1.247179 22.259319
Head 30.789091 13.826085 29.988263
LeftShoulder -9.394912 5.188437 18.855619
LeftArm 33.372248 -47.364123 -68.191834
LeftForeArm -20.024065 -0.000000 94.099716
LeftHand -10.199790 0.000000 27.860826
LeftHandThumb1 -26.253704 0.000000 33.147579
RightShoulder -19.978889 -7.702639 -4.631239
RightArm 15.059908 -24.312327 69.600540
RightForeArm -4.441995 -0.000000 36.260133
RightHand -12.686324 -0.000000 -2.270672
RightHandThumb1 -24.326973 -0.000000 -32.862282
LeftUpLeg -0.562195 43.253797 29.541510
LeftLeg 10.749192 -0.000000 -0.000000
LeftFoot -12.672887 20.337612 -8.082048
LeftToeBase 7.675154 -0.000000 -0.000000
RightUpLeg -80.998672 -26.448909 3.361516
RightLeg 129.311408 -0.000000 -0.000000
RightFoot -0.076716 -11.756347 7.383572
RightToeBase -0.077857 -0.000000 0.000000
810
root 12.875663 37.351784 -15.112797 182.581566 13.074156 -146.739475
Spine 32.630738 -1.194563 22.060330
Head 30.762680 13.556777 30.191209
LeftShoulder -9.357713 5.095780 18.932096
LeftArm 33.374926 -47.266166 -68.035581
LeftForeArm -19.756814 -0.000000 94.323076
LeftHand -10.431268 -0.000000 27.590661
LeftHandThumb1 -26.253704 0.000000 33.147579
RightShoulder -20.000560 -7.746678 -4.433616
RightArm 15.002220 -24.502760 69.668582
RightForeArm -4.501402 -0.000000 36.050364
RightHand -12.695964 0.000000 -2.002661
RightHandThumb1 -24.326973 -0.000000 -32.862282
LeftUpLeg -0.896603 43.720595 29.406666
LeftLeg 10.866074 -0.000000 -0.000000
LeftFoot -12.730721 20.070834 -8.105437
LeftToeBase 7.788408 -0.000000 -0.000000
RightUpLeg -80.072781 -26.164842 3.110220
RightLeg 129.009249 -0.000000 -0.000000
RightFoot -0.058505 -11.460209 7.734179
RightToeBase 0.078085 -0.000000 -0.000000
811
root 12.870650 37.347414 -15.088390 182.782914 13.044937 -146.730230
Spine 32.412249 -1.185785 21.874736
Head 30.717132 13.318557 30.357567
LeftShoulder -9.303337 5.052735 18.998698
LeftArm 33.420738 -47.187452 -67.934468
LeftForeArm -19.607017 -0.000000 94.564118
LeftHand -10.537659 -0.000000 27.479793
LeftHandThumb1 -26.253704 0.000000 33.147579
RightShoulder -20.070720 -7.859102 -4.245789
RightArm 15.061160 -24.678181 69.727729
RightForeArm -4.535334 -0.000000 35.842874
RightHand -12.807918 -0.000000 -1.767712
RightHandThumb1 -24.326973 -0.000000 -32.862282
LeftUpLeg -1.246450 44.197034 29.230647
LeftLeg 10.954120 -0.000000 -0.000000
LeftFoot -12.736963 19.804022 -8.037281
LeftToeBase 7.849128 -0.000000 -0.000000
RightUpLeg -79.131722 -25.896574 2.857104
RightLeg 128.706854 -0.000000 -0.000000
RightFoot -0.001927 -11.240811 8.069763
RightToeBase -0.043932 -0.000000 0.000000
